<svg xmlns="http://www.w3.org/2000/svg" width="173" height="34" viewBox="0 0 173 34" fill="none"><path d="M54.1047 19.1483L55.5063 20.3915L54.1656 21.9866L52.6634 20.6608C51.4007 21.6704 49.8347 22.2251 48.218 22.2352C46.7594 22.2466 45.3303 21.8246 44.1118 21.0226C42.8934 20.2207 41.9405 19.075 41.374 17.7309C40.8076 16.3867 40.653 14.9046 40.9299 13.4725C41.2068 12.0403 41.9028 10.7227 42.9296 9.68663C43.9563 8.65055 45.2676 7.94269 46.6971 7.65281C48.1267 7.36294 49.6102 7.5041 50.9594 8.05839C52.3086 8.61269 53.4629 9.55515 54.2758 10.7663C55.0887 11.9774 55.5237 13.4027 55.5255 14.8613C55.5254 16.4059 55.0271 17.9093 54.1047 19.1483ZM50.8163 19.0242L49.0096 17.4093L50.3504 15.8141L52.2179 17.4715C52.682 16.6797 52.9272 15.7788 52.9282 14.861C52.9282 12.1473 50.7766 9.86839 48.2189 9.86839C45.6411 9.86839 43.4689 12.1473 43.4689 14.861C43.4689 17.5958 45.6411 19.8744 48.2189 19.8744C49.1526 19.8711 50.0614 19.5736 50.8163 19.0242V19.0242Z" fill="#333459"></path><path d="M66.651 11.2761V21.9866H64.1747V20.5572C63.813 21.0825 63.3273 21.5104 62.7608 21.8032C62.1942 22.0959 61.5642 22.2444 60.9265 22.2355C58.6326 22.2355 57.029 20.5161 57.029 18.0915V11.2761H59.4246V17.5949C59.4246 19.0447 60.3387 20.0807 61.6371 20.0807C62.9354 20.0807 64.0119 19.1897 64.1747 18.0504V11.2761H66.651Z" fill="#333459"></path><path d="M68.113 16.621C68.1112 15.5085 68.4395 14.4205 69.0563 13.4946C69.6731 12.5687 70.5507 11.8466 71.5781 11.4197C72.6054 10.9927 73.7363 10.8801 74.8276 11.0961C75.919 11.312 76.9217 11.8469 77.709 12.6329C78.4963 13.419 79.0327 14.4209 79.2504 15.5119C79.4681 16.6029 79.3573 17.734 78.9319 18.762C78.5066 19.79 77.7859 20.6687 76.861 21.287C75.9361 21.9052 74.8486 22.2352 73.7361 22.2352C72.2505 22.2214 70.8297 21.6257 69.7784 20.5761C68.7271 19.5264 68.1292 18.1065 68.113 16.621V16.621ZM76.9233 16.621C76.9233 14.7565 75.4607 13.1824 73.7361 13.1824C71.9904 13.1824 70.5287 14.7565 70.5287 16.621C70.5287 18.5062 71.9913 20.0807 73.7361 20.0807C75.4604 20.0807 76.923 18.5062 76.923 16.621H76.9233Z" fill="#333459"></path><path d="M96.7564 15.1709V21.9866H94.3407V15.5853C94.3407 14.1767 93.5083 13.1824 92.3108 13.1824C92.0098 13.165 91.7085 13.2104 91.4261 13.3159C91.1437 13.4214 90.8863 13.5846 90.6705 13.7951C90.4547 14.0056 90.2851 14.2588 90.1726 14.5385C90.06 14.8182 90.007 15.1182 90.0169 15.4196V21.9866H87.6015V15.5853C87.6015 14.1767 86.7691 13.1824 85.5511 13.1824C85.2506 13.1666 84.95 13.2133 84.6683 13.3194C84.3867 13.4255 84.13 13.5887 83.9145 13.7989C83.6991 14.009 83.5294 14.2615 83.4163 14.5404C83.3032 14.8194 83.2491 15.1187 83.2573 15.4196V21.9866H80.7809V11.2761H83.2573V12.7265C83.5359 12.1976 83.9579 11.7577 84.4748 11.4573C84.9917 11.1569 85.5828 11.008 86.1804 11.0278C86.8735 11.0147 87.5561 11.1984 88.149 11.5577C88.7419 11.9171 89.2206 12.4372 89.5297 13.0578C90.037 11.8149 91.3579 11.0278 92.9199 11.0278C95.1119 11.0278 96.7564 12.747 96.7564 15.1709Z" fill="#333459"></path><path d="M98.1788 16.621C98.1771 15.5085 98.5054 14.4204 99.1222 13.4946C99.739 12.5687 100.617 11.8466 101.644 11.4196C102.671 10.9927 103.802 10.8801 104.894 11.0961C105.985 11.3121 106.988 11.847 107.775 12.633C108.562 13.4191 109.099 14.4211 109.316 15.5121C109.534 16.6031 109.423 17.7342 108.998 18.7622C108.572 19.7902 107.852 20.6689 106.927 21.2871C106.002 21.9054 104.914 22.2353 103.802 22.2352C102.316 22.2213 100.895 21.6256 99.8441 20.576C98.7929 19.5263 98.195 18.1064 98.1788 16.621V16.621ZM106.989 16.621C106.989 14.7565 105.526 13.1824 103.802 13.1824C102.056 13.1824 100.594 14.7565 100.594 16.621C100.594 18.5062 102.057 20.0807 103.802 20.0807C105.527 20.0807 106.989 18.5062 106.989 16.621Z" fill="#333459"></path><path d="M121.321 7.506V21.9866H118.844V20.3293C118.446 20.9255 117.905 21.4123 117.27 21.7452C116.636 22.0782 115.927 22.2467 115.211 22.2352C112.43 22.2352 110.4 19.9149 110.4 16.621C110.4 13.3478 112.43 11.0278 115.211 11.0278C115.927 11.0163 116.636 11.1847 117.27 11.5176C117.905 11.8506 118.446 12.3373 118.844 12.9334V7.506H121.321ZM118.844 16.621C118.844 14.6099 117.626 13.1824 115.88 13.1824C114.113 13.1824 112.856 14.6115 112.856 16.621C112.856 18.6306 114.114 20.0807 115.88 20.0807C117.626 20.0807 118.844 18.6303 118.844 16.621Z" fill="#333459"></path><path d="M122.842 16.621C122.841 15.5085 123.169 14.4205 123.786 13.4946C124.403 12.5687 125.28 11.8466 126.308 11.4197C127.335 10.9927 128.466 10.8801 129.557 11.0961C130.648 11.312 131.651 11.8469 132.438 12.6329C133.226 13.419 133.762 14.4209 133.98 15.5119C134.198 16.6029 134.087 17.734 133.661 18.762C133.236 19.79 132.515 20.6687 131.59 21.287C130.666 21.9052 129.578 22.2352 128.465 22.2352C126.98 22.2214 125.559 21.6257 124.508 20.5761C123.457 19.5264 122.859 18.1065 122.842 16.621V16.621ZM131.653 16.621C131.653 14.7565 130.19 13.1824 128.465 13.1824C126.72 13.1824 125.258 14.7565 125.258 16.621C125.258 18.5062 126.721 20.0807 128.465 20.0807C130.193 20.0807 131.654 18.5062 131.654 16.621H131.653Z" fill="#333459"></path><path d="M134.801 19.9149L136.264 18.0714C137.544 19.2522 139.024 19.9975 140.852 19.9975C142.577 19.9975 143.47 19.1278 143.47 18.1125C143.47 16.9318 142.475 16.5381 140.242 15.9994C137.36 15.3159 135.35 14.4664 135.35 11.7944C135.35 9.30833 137.422 7.48558 140.364 7.48558C142.312 7.45398 144.199 8.16506 145.642 9.47439L144.262 11.38C143.043 10.3029 141.643 9.70232 140.263 9.70232C138.861 9.70232 137.908 10.5723 137.908 11.5665C137.908 12.7268 138.944 13.1409 141.156 13.6589C144.059 14.322 146.007 15.2739 146.007 17.8639C146.007 20.4119 144.099 22.2145 140.77 22.2145C138.556 22.2621 136.411 21.436 134.801 19.9149V19.9149Z" fill="#333459"></path><path d="M146.982 16.621C146.98 15.5085 147.308 14.4204 147.925 13.4946C148.542 12.5687 149.42 11.8466 150.447 11.4196C151.474 10.9927 152.605 10.8801 153.697 11.0961C154.788 11.3121 155.791 11.847 156.578 12.633C157.365 13.4191 157.902 14.4211 158.119 15.5121C158.337 16.6031 158.226 17.7342 157.801 18.7622C157.375 19.7902 156.655 20.6689 155.73 21.2871C154.805 21.9054 153.717 22.2353 152.605 22.2352C151.119 22.2213 149.698 21.6256 148.647 20.576C147.596 19.5263 146.998 18.1064 146.982 16.621V16.621ZM155.792 16.621C155.792 14.7565 154.329 13.1824 152.605 13.1824C150.859 13.1824 149.397 14.7565 149.397 16.621C149.397 18.5062 150.86 20.0807 152.605 20.0807C154.33 20.0807 155.792 18.5062 155.792 16.621Z" fill="#333459"></path><path d="M162.837 11.2761H165.212V13.3689H162.837V21.9866H160.421V13.3689H158.898V11.2761H160.421V10.1576C160.421 8.35521 161.64 7.07087 163.385 7.07087C164.205 7.08538 164.995 7.38585 165.618 7.9204L164.907 9.53534C164.626 9.27505 164.255 9.13403 163.871 9.14196C163.282 9.14196 162.835 9.65997 162.835 10.3849L162.837 11.2761Z" fill="#333459"></path><path d="M172.834 21.3857C172.211 21.9203 171.422 22.2207 170.601 22.2352C168.855 22.2352 167.637 20.9509 167.637 19.1483V13.3689H166.466V11.2761H167.637V8.3348H170.053V11.2761H172.078V13.3689H170.053V18.8378C170.053 19.5627 170.5 20.0807 171.089 20.0807C171.472 20.0885 171.844 19.9474 172.125 19.687L172.834 21.3857Z" fill="#333459"></path><path d="M21.1826 24.8655C21.1874 24.8728 21.1948 24.8801 21.2021 24.8899C21.9267 25.8491 22.6564 26.7397 23.3497 27.4866C24.4259 28.6384 25.4262 29.4367 26.217 29.5805C26.2535 29.5875 26.2904 29.5927 26.3245 29.5976C26.365 29.6025 26.4057 29.605 26.4464 29.6049H26.4513C26.4937 29.6049 26.5362 29.6024 26.5783 29.5976C26.5857 29.598 26.5931 29.5972 26.6003 29.5951C26.638 29.5917 26.6754 29.586 26.7124 29.5781C27.6472 29.4047 28.9039 28.3382 30.5657 26.7178L33.636 29.8612C31.3202 32.1209 29.165 34 26.4854 34C26.2726 33.9998 26.06 33.9876 25.8486 33.9634C23.9898 33.7608 22.1951 32.6992 20.011 30.3319C19.9842 30.3051 19.9598 30.2783 19.9354 30.2515L19.9281 30.2442C19.8793 30.1905 19.8278 30.1345 19.7757 30.0757C19.1054 29.3316 18.3994 28.465 17.6428 27.4622" fill="url(#paint0_linear)"></path><path d="M21.1826 24.8655C21.1874 24.8728 21.1948 24.8801 21.2021 24.8899C21.9267 25.8491 22.6564 26.7397 23.3497 27.4866C24.4259 28.6384 25.4262 29.4367 26.217 29.5805C26.2535 29.5875 26.2904 29.5927 26.3245 29.5976C26.365 29.6025 26.4057 29.605 26.4464 29.6049H26.4513C26.4937 29.6049 26.5362 29.6024 26.5783 29.5976C26.5857 29.598 26.5931 29.5972 26.6003 29.5951C26.638 29.5917 26.6754 29.586 26.7124 29.5781C27.6472 29.4047 28.9039 28.3382 30.5657 26.7178L33.636 29.8612C31.3202 32.1209 29.165 34 26.4854 34C26.2726 33.9998 26.06 33.9876 25.8486 33.9634C23.9898 33.7608 22.1951 32.6992 20.011 30.3319C19.9842 30.3051 19.9598 30.2783 19.9354 30.2515L19.9281 30.2442C19.8793 30.1905 19.8278 30.1345 19.7757 30.0757C19.1054 29.3316 18.3994 28.465 17.6428 27.4622L21.1826 24.8655Z" fill="url(#paint1_linear)"></path><path d="M7.77302 7.43104C7.539 7.3701 7.30803 7.31526 7.07219 7.26894C6.21939 7.1025 5.35066 7.03187 4.48217 7.05839C4.39076 7.05839 4.29722 7.06357 4.20489 7.06875C4.01994 7.07911 3.83223 7.0919 3.64484 7.11232C3.17107 7.16061 2.70094 7.2396 2.2374 7.34877C2.30169 7.24609 2.36568 7.1431 2.42997 7.04407C2.50188 6.93346 2.57379 6.82833 2.65088 6.72046L2.87698 6.39656L3.11069 6.08332C3.19296 5.98063 3.27249 5.87795 3.35446 5.77526C3.51351 5.57233 3.68323 5.37183 3.86027 5.17681C3.96813 5.05493 4.07874 4.93518 4.19179 4.81695C4.2765 4.72981 4.36121 4.63992 4.44835 4.55522C4.70522 4.29317 4.97519 4.04148 5.25248 3.79985C5.45023 3.62799 5.65042 3.45827 5.8561 3.30165C6.16416 3.06032 6.48288 2.82661 6.80892 2.60813C8.08893 2.70981 9.34538 3.00966 10.5334 3.49696C10.8902 3.64078 11.2549 3.80502 11.6273 3.99272C12.0335 4.1981 12.4411 4.42835 12.8501 4.68349C13.7072 5.22246 14.5244 5.82246 15.2953 6.47883C18.2053 8.93934 21.2067 12.615 24.3799 17.6007L20.674 19.9573C17.5965 15.1261 15.0104 12.0413 12.794 10.0997C11.3663 8.84483 9.66795 7.93676 7.83152 7.44627L7.77302 7.43104Z" fill="url(#paint2_linear)"></path><path style="mix-blend-mode:multiply" opacity="0.5" d="M26.5784 29.5976C25.1651 29.7707 20.6844 30.1461 19.9254 30.2417C19.8766 30.1881 19.8279 30.1345 19.7767 30.0757L23.3497 27.4857C24.4259 28.6375 25.4263 29.4358 26.217 29.5796C26.2535 29.5866 26.2904 29.5918 26.3245 29.5967C26.365 29.6016 26.4057 29.604 26.4464 29.604H26.4513C26.4937 29.6043 26.5362 29.6021 26.5784 29.5976V29.5976Z" fill="url(#paint3_linear)"></path><path d="M28.5108 23.6348V23.6372C27.7079 24.9181 26.7234 26.0758 25.5881 27.074H25.5853V27.0764C22.7689 29.5549 19.1451 30.921 15.3935 30.9188C7.72154 30.9188 1.64719 25.782 0.139502 17.9636C0.00329733 17.121 -0.756945 11.2959 3.47331 9.71878C6.26778 8.80192 10.9996 9.84981 17.6666 20.0441L13.9912 22.4464C11.5075 18.6476 9.49889 16.3258 7.96286 15.1057C4.51601 12.4602 4.26951 15.2626 4.31582 16.0503C4.61627 21.773 9.53485 26.3576 15.1009 26.5246C17.2509 26.5913 19.3724 26.0202 21.1984 24.8835C21.8484 24.4811 22.4551 24.0129 23.009 23.4861V23.4836H23.0118L23.0142 23.4809C24.1704 22.3856 25.0771 21.0541 25.6725 19.577V19.5742L25.6752 19.5691C25.688 19.5331 25.7035 19.4971 25.7163 19.4588C26.1271 18.3973 26.3723 17.2789 26.4431 16.1429C26.4559 15.94 26.461 15.7395 26.4638 15.5366C26.4662 15.2233 26.4559 14.9073 26.4303 14.592C26.2704 12.5266 25.5338 10.5476 24.3042 8.88042C23.0747 7.21322 21.4016 5.92482 19.4757 5.16195C17.5497 4.39908 15.4482 4.19239 13.4105 4.56543C11.3728 4.93848 9.48086 5.87627 7.95007 7.27198L7.78492 7.43378C7.54846 7.37284 7.31048 7.31555 7.07159 7.26924C6.2188 7.10279 5.35007 7.03218 4.48158 7.05869C4.39017 7.06143 4.29662 7.06661 4.2043 7.06905C4.01934 7.07941 3.83164 7.09221 3.64425 7.11262C3.17048 7.16092 2.70034 7.2399 2.2368 7.34908C2.3011 7.24639 2.36509 7.1434 2.42938 7.04437L2.43212 7.04681C2.50403 6.9365 2.57594 6.82863 2.65029 6.72077L2.87638 6.39687L3.11009 6.08362C3.19237 5.98094 3.27189 5.87825 3.35386 5.77557C3.5181 5.57263 3.68904 5.37213 3.85967 5.17712C3.96754 5.05523 4.07815 4.93548 4.1912 4.81726C4.53003 4.46298 4.88359 4.12395 5.25188 3.80015C5.44964 3.63073 5.64983 3.46131 5.85551 3.30195C6.16357 3.06062 6.48229 2.82691 6.80833 2.60844C9.74632 0.643364 13.2692 -0.255185 16.7894 0.0626115C20.3097 0.380408 23.6147 1.89535 26.1532 4.35482C28.6918 6.8143 30.3105 10.0697 30.7396 13.5781C31.1686 17.0866 30.3819 20.6361 28.5108 23.6348V23.6348Z" fill="url(#paint4_linear)"></path><path d="M17.6669 20.0435C18.0694 20.6096 19.1581 22.2715 21.1982 24.8804V24.8829C19.8661 25.7114 18.3713 26.2433 16.8152 26.4423C15.7902 25.2905 14.4967 23.2015 13.951 22.3839C13.5776 21.8129 13.2148 21.276 12.8626 20.7733L17.6669 20.0435Z" fill="#517DFD"></path><path style="mix-blend-mode:multiply" opacity="0.5" d="M7.78494 7.43347L7.94918 7.27167C9.33645 6.00778 11.0218 5.11663 12.8474 4.68166C13.7045 5.22062 14.5217 5.82062 15.2926 6.47699L15.2975 6.48218C12.7667 6.53277 10.2485 6.85165 7.78494 7.43347V7.43347Z" fill="url(#paint5_linear)"></path><path style="mix-blend-mode:multiply" opacity="0.45" d="M25.5859 27.0743V27.0767L21.1981 24.8828C21.8478 24.4806 22.4546 24.0129 23.009 23.487V23.4845H23.0114L23.0139 23.4821C23.4627 24.1223 24.5292 25.6297 25.5859 27.0743Z" fill="url(#paint6_linear)"></path><path d="M24.3778 17.5979C24.8026 18.264 25.2329 18.9229 25.6688 19.5745C25.6688 19.5752 25.6691 19.5758 25.6695 19.5763C25.67 19.5767 25.6706 19.577 25.6713 19.577C26.5891 20.9608 27.5344 22.3136 28.5072 23.6354C28.5072 23.636 28.5074 23.6366 28.5079 23.6371C28.5084 23.6376 28.509 23.6378 28.5096 23.6378C30.091 25.8129 31.8016 27.8911 33.6321 29.8612L29.9177 32.5014C28.4348 30.764 26.9909 28.9561 25.586 27.0776V27.0752C24.7096 25.9039 23.8505 24.7082 23.0087 23.4879V23.4855C22.213 22.3288 21.4345 21.1533 20.6732 19.9591" fill="url(#paint7_linear)"></path><path d="M17.6669 20.0435C15.0525 16.0448 12.7334 13.4536 10.7147 11.838C9.66842 12.8137 8.70137 13.871 7.82272 15C7.86904 15.0332 7.91414 15.0691 7.96381 15.1051C9.2707 16.1432 10.921 17.9831 12.9138 20.8473C13.0384 21.0265 13.1652 21.213 13.2928 21.3988C13.3474 21.479 13.4013 21.5579 13.4565 21.6396C13.6054 21.8608 13.7561 22.0876 13.9086 22.32C13.9367 22.3626 13.9641 22.4028 13.9921 22.4458C14.5595 23.3008 15.8149 25.3168 16.8162 26.442C18.3717 26.2434 19.8663 25.712 21.1982 24.8841V24.8816C19.1578 22.2718 18.0697 20.6096 17.6669 20.0435Z" fill="url(#paint8_linear)"></path><defs><linearGradient id="paint0_linear" x1="14.2522" y1="13.3103" x2="20.4318" y2="38.8474" gradientUnits="userSpaceOnUse"><stop offset="0.205" stop-color="#5F95FC"></stop><stop offset="0.893" stop-color="#3D5DFF"></stop></linearGradient><linearGradient id="paint1_linear" x1="14.2522" y1="13.3103" x2="20.4318" y2="38.8474" gradientUnits="userSpaceOnUse"><stop offset="0.316" stop-color="#5F95FC"></stop><stop offset="0.388" stop-color="#5F95FC"></stop><stop offset="0.673" stop-color="#3D5DFF"></stop></linearGradient><linearGradient id="paint2_linear" x1="6.97589" y1="3.75317" x2="16.9454" y2="25.6646" gradientUnits="userSpaceOnUse"><stop offset="0.107" stop-color="#3D5DFF"></stop><stop offset="0.795" stop-color="#5F95FC"></stop></linearGradient><linearGradient id="paint3_linear" x1="19.7767" y1="28.8637" x2="26.5784" y2="28.8637" gradientUnits="userSpaceOnUse"><stop offset="0.107" stop-color="#3D5DFF"></stop><stop offset="0.795" stop-color="#5F95FC"></stop></linearGradient><linearGradient id="paint4_linear" x1="6.97297" y1="2.44259" x2="28.3871" y2="35.3918" gradientUnits="userSpaceOnUse"><stop offset="0.205" stop-color="#5F95FC"></stop><stop offset="0.893" stop-color="#3D5DFF"></stop></linearGradient><linearGradient id="paint5_linear" x1="10.4744" y1="5.44391" x2="10.8836" y2="9.77782" gradientUnits="userSpaceOnUse"><stop offset="0.107" stop-color="#3D5DFF"></stop><stop offset="0.795" stop-color="#5F95FC"></stop></linearGradient><linearGradient id="paint6_linear" x1="22.1239" y1="24.1759" x2="24.6612" y2="29.5518" gradientUnits="userSpaceOnUse"><stop offset="0.107" stop-color="#3258FF"></stop><stop offset="0.795" stop-color="#619DFF"></stop></linearGradient><linearGradient id="paint7_linear" x1="22.7984" y1="19.282" x2="34.6763" y2="31.408" gradientUnits="userSpaceOnUse"><stop offset="0.121" stop-color="#5F95FC"></stop><stop offset="0.603" stop-color="#3D5DFF"></stop></linearGradient><linearGradient id="paint8_linear" x1="-9.23096" y1="-21.1816" x2="36.8525" y2="45.7703" gradientUnits="userSpaceOnUse"><stop offset="0.492" stop-color="#5F95FC" stop-opacity="0"></stop><stop offset="0.515" stop-color="#5B8FFC" stop-opacity="0.098"></stop><stop offset="0.563" stop-color="#5281FD" stop-opacity="0.357"></stop><stop offset="0.634" stop-color="#456AFE" stop-opacity="0.761"></stop><stop offset="0.673" stop-color="#3D5DFF"></stop></linearGradient></defs></svg>